HIERARCHY
ROOT Hips
{
	OFFSET 0.00000 0.00000 0.00000
	CHANNELS 6 Xposition Yposition Zposition Zrotation Yrotation Xrotation 
	JOINT LHipJoint
	{
		OFFSET 0 0 0
		CHANNELS 3 Zrotation Yrotation Xrotation
		JOINT LeftUpLeg
		{
			OFFSET 1.26600 -1.82114 0.91038
			CHANNELS 3 Zrotation Yrotation Xrotation
			JOINT LeftLeg
			{
				OFFSET 2.50076 -6.87080 0.00000
				CHANNELS 3 Zrotation Yrotation Xrotation
				JOINT LeftFoot
				{
					OFFSET 2.57364 -7.07102 0.00000
					CHANNELS 3 Zrotation Yrotation Xrotation
					JOINT LeftToeBase
					{
						OFFSET 0.13572 -0.37290 1.97004
						CHANNELS 3 Zrotation Yrotation Xrotation
						End Site
						{
							OFFSET 0.00000 -0.00000 1.01383
						}
					}
				}
			}
		}
	}
	JOINT RHipJoint
	{
		OFFSET 0 0 0
		CHANNELS 3 Zrotation Yrotation Xrotation
		JOINT RightUpLeg
		{
			OFFSET -1.20803 -1.82114 0.91038
			CHANNELS 3 Zrotation Yrotation Xrotation
			JOINT RightLeg
			{
				OFFSET -2.54916 -7.00377 0.00000
				CHANNELS 3 Zrotation Yrotation Xrotation
				JOINT RightFoot
				{
					OFFSET -2.56374 -7.04382 0.00000
					CHANNELS 3 Zrotation Yrotation Xrotation
					JOINT RightToeBase
					{
						OFFSET -0.23520 -0.64621 2.09921
						CHANNELS 3 Zrotation Yrotation Xrotation
						End Site
						{
							OFFSET -0.00000 -0.00000 1.10065
						}
					}
				}
			}
		}
	}
	JOINT LowerBack
	{
		OFFSET 0 0 0
		CHANNELS 3 Zrotation Yrotation Xrotation
		JOINT Spine
		{
			OFFSET 0.05492 2.10797 -0.12074
			CHANNELS 3 Zrotation Yrotation Xrotation
			JOINT Spine1
			{
				OFFSET 0.04577 2.11592 -0.04483
				CHANNELS 3 Zrotation Yrotation Xrotation
				JOINT Neck
				{
					OFFSET 0 0 0
					CHANNELS 3 Zrotation Yrotation Xrotation
					JOINT Neck1
					{
						OFFSET -0.10759 1.80167 0.15770
						CHANNELS 3 Zrotation Yrotation Xrotation
						JOINT Head
						{
							OFFSET 0.09237 1.77509 -0.40848
							CHANNELS 3 Zrotation Yrotation Xrotation
							End Site
							{
								OFFSET 0.03805 1.84093 -0.15754
							}
						}
					}
				}
				JOINT LeftShoulder
				{
					OFFSET 0 0 0
					CHANNELS 3 Zrotation Yrotation Xrotation
					JOINT LeftArm
					{
						OFFSET 3.42372 1.09575 -0.28209
						CHANNELS 3 Zrotation Yrotation Xrotation
						JOINT LeftForeArm
						{
							OFFSET 4.95681 -0.00000 0.00000
							CHANNELS 3 Zrotation Yrotation Xrotation
							JOINT LeftHand
							{
								OFFSET 3.40915 -0.00000 0.00000
								CHANNELS 3 Zrotation Yrotation Xrotation
								JOINT LeftFingerBase
								{
									OFFSET 0 0 0
									CHANNELS 3 Zrotation Yrotation Xrotation
									JOINT LeftHandIndex1
									{
										OFFSET 0.61640 -0.00000 0.00000
										CHANNELS 3 Zrotation Yrotation Xrotation
										End Site
										{
											OFFSET 0.49696 -0.00000 0.00000
										}
									}
								}
								JOINT LThumb
								{
									OFFSET 0 0 0
									CHANNELS 3 Zrotation Yrotation Xrotation
									End Site
									{
										OFFSET 0.50455 -0.00000 0.50455
									}
								}
							}
						}
					}
				}
				JOINT RightShoulder
				{
					OFFSET 0 0 0
					CHANNELS 3 Zrotation Yrotation Xrotation
					JOINT RightArm
					{
						OFFSET -3.24731 1.15872 -0.32221
						CHANNELS 3 Zrotation Yrotation Xrotation
						JOINT RightForeArm
						{
							OFFSET -5.35200 -0.00000 0.00000
							CHANNELS 3 Zrotation Yrotation Xrotation
							JOINT RightHand
							{
								OFFSET -3.43721 -0.00000 -0.00000
								CHANNELS 3 Zrotation Yrotation Xrotation
								JOINT RightFingerBase
								{
									OFFSET 0 0 0
									CHANNELS 3 Zrotation Yrotation Xrotation
									JOINT RightHandIndex1
									{
										OFFSET -0.72009 -0.00000 0.00000
										CHANNELS 3 Zrotation Yrotation Xrotation
										End Site
										{
											OFFSET -0.58056 -0.00000 0.00000
										}
									}
								}
								JOINT RThumb
								{
									OFFSET 0 0 0
									CHANNELS 3 Zrotation Yrotation Xrotation
									End Site
									{
										OFFSET -0.58942 -0.00000 0.58942
									}
								}
							}
						}
					}
				}
			}
		}
	}
}
MOTION
Frames: 12
Frame Time: .0083333
-13.4849 17.4917 10.811 0 0 0 0 0 0 -21 0 0 0 0 0 0 0 0 0 0 0 0 0 0 21 0 0 0 0 0 0 0 0 0 0 0 0 0 0 0 0 0 0 0 0 0 0 -16 0 0 21 0 0 11 0 0 0 -8 0 0 0 0 0 0 0 0 0 0 0 0 0 0 0 0 0 0 0 0 8 0 0 0 0 0 0 0 0 0 0 0 0 0 0 0 0 0
-13.4849 17.4917 10.8110 -139.9050 84.4795 -138.2930 0.0000 0.0000 0.0000 -15.9279 -5.3840 -5.1557 2.2717 9.4105 27.0881 0.8032 -10.1977 -16.4709 0.2015 2.8902 7.9731 0.0000 0.0000 0.0000 24.3710 -2.0142 -8.6063 -2.7508 -10.2802 29.8889 -1.0692 12.7775 -19.2633 -1.4087 -7.5072 21.2271 1.2084 0.7372 0.9384 3.2010 1.0701 -0.2869 2.5879 0.5573 -0.8600 -7.6276 -1.3278 -15.2964 -0.0407 2.1108 36.6580 1.8377 0.3379 15.4328 -0.0000 0.0000 0.0000 -90.5043 7.8756 6.7932 12.2621 -20.1965 -2.1919 -0.0000 -0.0000 7.3413 10.8835 19.1771 3.6140 -7.1250 0.0000 -0.0000 -16.8849 48.7277 -1.5942 -0.0000 0.0000 0.0000 85.2057 -4.3937 10.3302 -12.3703 20.3576 -2.2294 0.0000 -0.0000 -3.7129 -14.2484 12.3365 -3.1055 7.1250 -0.0000 -0.0000 9.0170 -17.3597 5.9909
-13.4872 17.4890 10.8080 -140.8420 84.3341 -139.1760 0.0000 0.0000 0.0000 -15.9272 -5.3139 -5.2739 2.2583 9.3845 27.0056 0.8239 -9.9360 -16.6037 0.0833 1.8617 5.1235 0.0000 0.0000 0.0000 24.3730 -2.1217 -8.7645 -2.7715 -10.3156 30.0049 -1.0685 12.7955 -19.2626 -1.4800 -7.6867 21.7664 1.2758 0.6613 0.9166 3.2083 0.9671 -0.2176 2.5600 0.5053 -0.7720 -7.5590 -1.2976 -15.1516 -0.1263 2.1372 36.5148 1.7891 0.3508 15.3290 -0.0000 -0.0000 0.0000 -90.5758 7.9391 6.9440 12.2843 -20.2297 -2.1996 -0.0000 -0.0000 6.8857 11.6558 19.3714 3.9143 -7.1250 0.0000 -0.0000 -16.2426 49.0279 -1.6531 -0.0000 -0.0000 0.0000 85.2056 -4.3380 10.0266 -12.1634 20.0492 -2.1580 0.0000 -0.0000 -2.9237 -14.0606 12.3392 -3.0636 7.1250 -0.0000 -0.0000 9.1471 -17.3697 6.0776
-13.4866 17.4886 10.8059 -141.0530 84.1923 -139.3850 0.0000 0.0000 0.0000 -15.8363 -5.3498 -5.2656 2.2550 9.3782 26.9858 0.8045 -10.0705 -16.4556 0.1225 2.2563 6.2145 0.0000 0.0000 0.0000 24.4401 -2.2137 -8.7832 -2.7727 -10.3176 30.0115 -1.0699 12.7125 -19.2529 -1.5050 -7.7485 21.9528 1.3900 0.6439 0.9128 3.2670 0.9458 -0.1622 2.5571 0.4951 -0.7115 -7.5933 -1.3993 -15.2845 -0.2156 2.0850 36.7969 1.7566 0.3077 15.5063 -0.0000 -0.0000 0.0000 -90.7458 8.0533 6.9139 12.3044 -20.2596 -2.2066 -0.0000 -0.0000 7.1615 12.0737 19.6539 4.1149 -7.1250 0.0000 -0.0000 -15.9637 49.3639 -1.7581 -0.0000 -0.0000 0.0000 85.1790 -4.3610 9.4482 -11.9889 19.7881 -2.0985 0.0000 -0.0000 -2.0361 -14.0205 12.1014 -2.9967 7.1250 -0.0000 -0.0000 9.1783 -17.6136 6.0491
-13.4818 17.4848 10.8040 -142.8510 84.2525 -141.2790 0.0000 0.0000 0.0000 -16.0272 -5.2309 -5.1451 2.2499 9.3682 26.9541 0.7742 -10.3541 -16.2424 0.1723 2.6737 7.3716 0.0000 0.0000 0.0000 24.2087 -2.4390 -8.7226 -2.7762 -10.3237 30.0315 -1.0802 12.8091 -19.3553 -1.4220 -7.5411 21.3286 1.2309 0.6357 0.9517 3.2454 0.9291 -0.0613 2.6247 0.4863 -0.6314 -7.6611 -1.4680 -15.4819 -0.2288 2.0896 37.2006 1.7754 0.2925 15.7573 0.0000 -0.0000 0.0000 -90.9500 8.1657 6.4568 12.3434 -20.3177 -2.2201 -0.0000 -0.0000 8.1912 11.0095 20.0115 3.8090 -7.1250 0.0000 -0.0000 -17.1082 49.5506 -1.9712 0.0000 -0.0000 0.0000 85.1473 -4.4301 9.0878 -11.8568 19.5896 -2.0540 0.0000 -0.0000 -1.5482 -13.6805 11.7747 -2.8436 7.1250 -0.0000 -0.0000 9.4203 -17.9664 6.1389
-13.4810 17.4832 10.8043 -144.1460 84.2682 -142.6870 0.0000 0.0000 0.0000 -16.1863 -5.4080 -4.9108 2.2460 9.3608 26.9306 0.7821 -10.3131 -16.3050 0.1815 2.7441 7.5670 0.0000 0.0000 0.0000 24.0863 -2.5696 -8.6270 -2.7755 -10.3224 30.0271 -1.0878 12.7687 -19.4036 -1.3540 -7.3661 20.8046 1.0897 0.5745 1.0604 3.2452 0.8447 0.0489 2.7047 0.4437 -0.5782 -7.7327 -1.4136 -15.5247 -0.1541 2.1946 37.3448 1.8426 0.3354 15.8335 -0.0000 0.0000 0.0000 -91.1723 8.2470 6.1201 12.3819 -20.3749 -2.2335 -0.0000 -0.0000 8.4957 10.5707 19.9607 3.6451 -7.1250 0.0000 -0.0000 -17.4975 49.4359 -1.9680 -0.0000 0.0000 0.0000 85.0109 -4.5010 9.3018 -11.7490 19.4271 -2.0180 0.0000 -0.0000 -1.3993 -13.2542 11.7128 -2.7376 7.1250 -0.0000 -0.0000 9.7184 -18.0552 6.3195
-13.4857 17.4853 10.8056 -144.1050 84.1474 -142.6670 0.0000 0.0000 0.0000 -16.1474 -5.7952 -4.7353 2.2384 9.3459 26.8835 0.8058 -10.0466 -16.4623 0.1864 2.7809 7.6693 0.0000 0.0000 0.0000 24.1983 -2.5009 -8.6037 -2.7792 -10.3287 30.0478 -1.0946 12.5763 -19.4095 -1.3561 -7.3714 20.8204 1.1542 0.5133 1.1581 3.2958 0.7672 0.1027 2.7212 0.4054 -0.5748 -7.6447 -1.3446 -15.5394 -0.2240 2.3151 37.4304 1.8207 0.3884 15.8765 -0.0000 -0.0000 0.0000 -91.3513 8.3532 6.2796 12.4289 -20.4448 -2.2499 -0.0000 -0.0000 7.6995 11.1039 19.6251 3.7714 -7.1250 0.0000 -0.0000 -16.8603 49.1921 -1.7890 -0.0000 -0.0000 0.0000 84.8979 -4.5827 9.5732 -11.6805 19.3237 -1.9953 0.0000 -0.0000 -1.1913 -13.0478 11.7525 -2.7026 7.1250 -0.0000 -0.0000 9.8612 -18.0278 6.4212
-13.4905 17.4906 10.8028 -144.9250 84.1151 -143.4380 0.0000 0.0000 0.0000 -16.1845 -5.7808 -4.8506 2.2394 9.3478 26.8895 0.7925 -10.1580 -16.3652 0.2021 2.8946 7.9853 0.0000 0.0000 0.0000 24.1367 -2.4216 -8.6262 -2.7767 -10.3244 30.0338 -1.1041 12.5555 -19.4774 -1.4168 -7.5279 21.2890 1.1839 0.5241 1.2317 3.2380 0.7821 0.1232 2.6440 0.4121 -0.5944 -7.4252 -1.3554 -15.5245 -0.3322 2.2746 37.4736 1.7297 0.3880 15.8991 0.0000 0.0000 0.0000 -91.2758 8.3999 6.7333 12.4557 -20.4845 -2.2592 -0.0000 -0.0000 6.8701 11.6334 19.4562 3.9229 -7.1250 0.0000 -0.0000 -16.2974 49.1068 -1.6913 0.0000 0.0000 0.0000 84.9780 -4.6662 9.5469 -11.6232 19.2371 -1.9764 0.0000 -0.0000 -0.7349 -12.9532 11.7846 -2.6895 7.1250 -0.0000 -0.0000 9.9261 -18.0010 6.4707
-13.4939 17.4951 10.8021 -145.7650 84.0983 -144.1830 0.0000 0.0000 0.0000 -16.1476 -5.4905 -5.4963 2.3500 9.5598 27.5628 0.7935 -10.7336 -16.5031 0.1825 2.7519 7.5888 0.0000 0.0000 0.0000 24.0811 -2.4222 -8.5766 -2.7151 -10.2189 29.6886 -1.0916 12.5278 -19.3754 -1.4845 -7.6978 21.7999 1.2098 0.5790 1.2472 3.1407 0.8529 0.1319 2.5277 0.4463 -0.5949 -7.3620 -1.4112 -15.3456 -0.1947 2.0702 37.2854 1.7359 0.3351 15.7642 0.0000 -0.0000 0.0000 -91.0365 8.5085 7.6348 12.5731 -20.6585 -2.3005 -0.0000 -0.0000 6.1095 12.0204 19.6962 4.1047 -7.1250 0.0000 -0.0000 -16.0306 49.3970 -1.7792 0.0000 -0.0000 0.0000 85.0874 -4.8382 9.7007 -11.6474 19.2737 -1.9843 0.0000 -0.0000 -0.6182 -12.9666 11.6818 -2.6692 7.1250 -0.0000 -0.0000 9.9193 -18.1039 6.4433
-13.4922 17.4928 10.8014 -143.7200 83.8700 -142.0330 0.0000 0.0000 0.0000 -15.7731 -5.4196 -5.6549 2.3453 9.5511 27.5349 0.7870 -10.8987 -16.4837 0.1643 2.6117 7.1994 0.0000 0.0000 0.0000 24.4254 -2.5079 -8.7438 -2.7157 -10.2199 29.6920 -1.0823 12.6007 -19.3213 -1.4648 -7.6487 21.6520 1.6200 0.6402 1.1127 3.1918 0.9375 0.1804 2.3505 0.4893 -0.4673 -7.5635 -1.5068 -15.1530 0.0455 1.8515 37.0682 1.8293 0.2531 15.6132 0.0000 0.0000 0.0000 -90.9690 8.6096 8.1914 12.7258 -20.8842 -2.3546 -0.0000 -0.0000 6.3539 10.8348 20.0501 3.7542 -7.1250 0.0000 -0.0000 -17.2881 49.5614 -1.9978 0.0000 0.0000 0.0000 85.0555 -4.9973 9.8703 -11.7181 19.3805 -2.0077 0.0000 -0.0000 -0.8289 -13.1510 11.6322 -2.6972 7.1250 -0.0000 -0.0000 9.7921 -18.1429 6.3497
-13.6426 17.4940 10.8896 -126.6250 80.3115 -124.2730 0.0000 0.0000 0.0000 -10.2341 -5.7179 -8.0352 2.4125 9.6771 27.9374 0.6043 -11.8567 -15.0926 0.1363 2.3792 6.5550 0.0000 0.0000 0.0000 30.0955 1.2521 -9.0739 -2.6644 -10.1308 29.4014 -1.2834 8.1939 -20.2682 -1.3637 -7.3913 20.8798 4.8632 0.4620 2.5307 4.5183 0.9791 -0.5029 1.8845 0.5106 -1.9431 -7.7911 -1.6678 -15.1388 0.2935 1.6031 37.1789 1.9357 0.1512 15.6735 0.0000 0.0000 0.0000 -90.8981 8.6200 8.6060 12.7858 -20.9725 -2.3761 -0.0000 -0.0000 6.7190 9.7746 20.1312 3.3932 -7.1250 0.0000 -0.0000 -18.3135 49.4803 -2.0859 0.0000 0.0000 0.0000 85.0686 -5.1119 9.6483 -11.7599 19.4435 -2.0216 0.0000 -0.0000 -0.9205 -13.3052 11.7547 -2.7582 7.1250 -0.0000 -0.0000 9.6820 -18.0099 6.3050
-13.4818 17.4952 10.8074 -153.6110 83.5248 -151.9930 0.0000 0.0000 0.0000 -16.5626 -5.7051 -5.6727 2.3919 9.6386 27.8140 0.7746 -11.2768 -16.4691 0.1152 2.1879 6.0252 0.0000 0.0000 0.0000 23.5782 -3.4955 -8.7770 -2.6704 -10.1414 29.4358 -1.0453 12.7704 -19.0782 -1.4878 -7.7059 21.8244 0.8896 0.4885 1.1683 2.9794 0.7136 0.3318 2.5458 0.3738 -0.3425 -7.7293 -1.7454 -15.2547 0.3470 1.4907 37.4403 1.9366 0.1170 15.8376 -0.0000 -0.0000 0.0000 -90.9278 8.7039 8.9491 12.9282 -21.1820 -2.4273 -0.0000 -0.0000 6.4392 10.2466 20.0955 3.5540 -7.1250 0.0000 -0.0000 -17.8576 49.5168 -2.0473 -0.0000 -0.0000 0.0000 85.1418 -5.1485 9.4349 -11.7918 19.4916 -2.0323 0.0000 -0.0000 -0.8601 -13.2236 11.7940 -2.7497 7.1250 -0.0000 -0.0000 9.7379 -17.9751 6.3500
